<svg xmlns="http://www.w3.org/2000/svg">

    <symbol id="whatsapp" viewBox="0 0 40 40">
        <path d="M20.005 0H19.995C8.9675 0 0 8.97 0 20C0 24.375 1.41 28.43 3.8075 31.7225L1.315 39.1525L9.0025 36.695C12.165 38.79 15.9375 40 20.005 40C31.0325 40 40 31.0275 40 20C40 8.9725 31.0325 0 20.005 0Z" fill="#4CAF50"/>
        <path d="M31.6426 28.2425C31.1601 29.605 29.2451 30.735 27.7176 31.065C26.6726 31.2875 25.3076 31.465 20.7126 29.56C14.8351 27.125 11.0501 21.1525 10.7551 20.765C10.4726 20.3775 8.38013 17.6025 8.38013 14.7325C8.38013 11.8625 9.83763 10.465 10.4251 9.86499C10.9076 9.37249 11.7051 9.14749 12.4701 9.14749C12.7176 9.14749 12.9401 9.15999 13.1401 9.16999C13.7276 9.19499 14.0226 9.22999 14.4101 10.1575C14.8926 11.32 16.0676 14.19 16.2076 14.485C16.3501 14.78 16.4926 15.18 16.2926 15.5675C16.1051 15.9675 15.9401 16.145 15.6451 16.485C15.3501 16.825 15.0701 17.085 14.7751 17.45C14.5051 17.7675 14.2001 18.1075 14.5401 18.695C14.8801 19.27 16.0551 21.1875 17.7851 22.7275C20.0176 24.715 21.8276 25.35 22.4751 25.62C22.9576 25.82 23.5326 25.7725 23.8851 25.3975C24.3326 24.915 24.8851 24.115 25.4476 23.3275C25.8476 22.7625 26.3526 22.6925 26.8826 22.8925C27.4226 23.08 30.2801 24.4925 30.8676 24.785C31.4551 25.08 31.8426 25.22 31.9851 25.4675C32.1251 25.715 32.1251 26.8775 31.6426 28.2425Z" fill="#FAFAFA"/>
    </symbol>
        
    <symbol id="whatline" viewBox="0 0 279 9" fill="white">
        <line x1="9" y1="4.5" x2="279" y2="4.50002" stroke="#C8C8C8"/>
        <circle cx="4.5" cy="4.5" r="4" stroke="#C8C8C8"/>
    </symbol>

    <symbol id="one" viewBox="0 0 60 71" fill="none">
        <circle cx="25" cy="46" r="25" fill="#FFE7E7"/>
        <path d="M53.3362 7H52.0656V5C52.0624 2.23988 49.8417 0.00325 47.1012 0H13.3437C10.6032 0.00325 8.38255 2.23988 8.37932 5V7H7.1087C3.42639 6.99725 0.438973 10.0016 0.436366 13.7105C0.435125 15.4321 1.09042 17.0886 2.26697 18.3375L8.37932 24.8394V30H0.436366V32H27.6792C28.1352 31.9994 28.5327 32.3121 28.6426 32.7578L29.6354 36.7578C29.7682 37.2936 29.4447 37.8364 28.9126 37.9702C28.8339 37.99 28.7531 38 28.6721 38H22.2795C21.7312 38.0001 21.2868 38.448 21.2869 39.0003C21.287 39.4766 21.6209 39.8869 22.0846 39.9805L23.9705 40.3604C24.7586 40.5211 25.3431 41.1921 25.3987 42H20.7048L16.0314 37.293C15.8452 37.1055 15.5928 37 15.3294 37H0.436366V39H8.37932V47H0V49H11.9144C12.1778 49 12.4304 48.8946 12.6165 48.707L17.2903 44H21.9841C21.9288 44.8083 21.3438 45.4795 20.5554 45.6396L18.67 46.0195C18.1324 46.128 17.7839 46.655 17.8916 47.1965C17.9846 47.6635 18.3917 47.9996 18.8645 48H25.2571C25.8054 48 26.25 48.4476 26.25 49C26.25 49.0816 26.2401 49.163 26.2204 49.2422L25.2276 53.2422C25.1177 53.6879 24.7202 54.0006 24.2642 54H0V56H8.37932V59C8.37932 59.5522 8.82388 60 9.37219 60H51.0727C51.621 60 52.0656 59.5522 52.0656 59V24.8384L58.176 18.3399C60.7081 15.642 60.5893 11.3874 57.9106 8.83712C56.674 7.65975 55.0375 7.00262 53.3357 7H53.3362ZM16.8788 42C16.6154 42 16.363 42.1055 16.1768 42.293L11.5034 47H10.3651V39H14.9184L17.897 42H16.8788ZM50.0798 5V7H38.1406L37.704 5.53225C37.2893 4.19487 36.4182 2.96312 35.2898 2H47.1012C48.7456 2.00175 50.078 3.34387 50.0798 5ZM39.1583 16V15H48.4611L41.7592 21H34.1939V19H36.1797C37.824 18.9981 39.1564 17.656 39.1583 16ZM37.7214 12.1055C37.385 12.2749 37.1725 12.6213 37.1725 13V16C37.1718 16.552 36.7277 16.9993 36.1797 17H33.2011C32.6528 17 32.2082 17.4478 32.2082 18V21H25.2581V16.9625C27.608 16.7855 29.7454 15.5268 31.051 13.551C31.3106 13.1546 31.2578 12.629 30.9244 12.2933L29.9612 11.323C29.7091 11.0669 29.5675 10.7211 29.567 10.3605C29.5669 10.2154 29.5904 10.0712 29.6363 9.93375C29.8179 9.37613 30.3348 8.99938 30.9175 9H32.2082C32.7565 9 33.2011 8.55225 33.2011 8V2.9205C34.4435 3.68187 35.4102 4.84462 35.8045 6.11725L36.4574 8.32275C36.487 8.4415 36.538 8.55387 36.6077 8.65425L38.6769 11.625L37.7214 12.1055ZM18.6857 21L11.9838 15H22.6588L23.2724 16.2359V21H18.6857ZM30.1232 2C30.4909 2.006 30.8569 2.05075 31.2153 2.1335V7H30.9175C29.0741 7.00037 27.5801 8.50575 27.5804 10.3623C27.5806 11.253 27.9318 12.1073 28.5569 12.7375L28.9055 13.0885C28.4585 13.589 27.9274 14.0063 27.3367 14.3214C26.5764 14.7301 25.7333 14.9579 24.872 14.987L22.9025 11.019C22.7773 10.7619 22.6685 10.497 22.5765 10.226C24.983 8.80287 25.9276 5.77488 24.7617 3.22125C24.9452 3.08563 25.1355 2.95963 25.3318 2.84375C26.2708 2.29212 27.3383 2.00087 28.4254 2H30.1232ZM19.7973 2C21.7165 2 23.2724 3.567 23.2724 5.5C23.2724 7.433 21.7165 9 19.7973 9C17.8781 9 16.3223 7.433 16.3223 5.5C16.3245 3.56787 17.8791 2.00225 19.7973 2ZM10.3651 5C10.3669 3.34387 11.6994 2.00187 13.3437 2H15.5882C14.4408 3.39038 14.0515 5.26275 14.5483 7H10.3651V5ZM10.3651 26.9517L13.2306 30H10.3651V26.9517ZM25.2571 46H23.3296C23.3761 45.9301 23.4207 45.8589 23.4629 45.7856C23.7703 45.2405 23.938 44.6268 23.9506 44H26.251C26.6784 44 27.0579 43.7244 27.193 43.3159C27.534 42.2839 27.4191 41.1543 26.8774 40.2134C26.8352 40.1406 26.7911 40.0694 26.7446 40H28.6721C30.3172 40.0001 31.6508 38.657 31.6508 37.0001C31.6508 36.7549 31.621 36.5104 31.562 36.2725L30.5691 32.2725C30.239 30.936 29.0466 29.9985 27.6792 30H22.2795C22.2806 28.8959 23.169 28.0011 24.2652 28H32.0889C33.7426 27.9951 35.2362 28.9942 35.8732 30.5312C36.0739 31.0366 36.1779 31.5758 36.1797 32.1201V34.8799C36.1824 35.9731 35.751 37.0221 34.9813 37.793C34.2641 38.507 33.7376 39.392 33.4508 40.3657C33.4435 40.3891 33.4376 40.4136 33.4323 40.4385C33.2778 40.9855 33.1999 41.5515 33.2011 42.1201V47.8799C33.1985 50.1543 31.3685 51.9974 29.1103 52H28.2367C28.0175 51.9954 27.8067 51.9149 27.6395 51.772L28.147 49.7275C28.5459 48.1201 27.5756 46.4914 25.9796 46.0895C25.7434 46.03 25.5006 45.9999 25.2571 46ZM10.3651 56H17.437L16.6427 58H10.3651V56ZM50.0798 58H43.8022L40.1788 48.8765L41.1084 42.3102C43.5449 41.1661 45.1061 38.7076 45.1155 36C45.1136 34.951 44.8742 33.9161 44.4157 32.9743L50.0798 26.95V58ZM42.9172 34.5679C43.4757 36.4137 42.9136 38.4183 41.4787 39.6971L42.0822 35.456L42.9172 34.5679ZM56.7362 16.9625L40.4227 34.3125C40.2818 34.4626 40.1905 34.6529 40.1613 34.8574L39.2181 41.4873C39.2157 41.5029 39.2138 41.52 39.2124 41.5373L38.1758 48.8585C38.1511 49.0317 38.172 49.2085 38.2364 49.371L41.6633 58H18.7816L19.5759 56H24.2639C25.6083 56.0005 26.7856 55.0918 27.1346 53.7841C27.485 53.9263 27.8591 53.9995 28.2367 54H29.1103C32.4646 53.9961 35.183 51.2583 35.1868 47.8799V42.1201C35.1857 41.7224 35.242 41.3265 35.3541 40.9451C35.3603 40.9241 35.3656 40.9022 35.3705 40.8792C35.5681 40.2465 35.9164 39.6722 36.3852 39.2064C37.5285 38.0615 38.1695 36.5036 38.1654 34.8799V32.1201C38.1626 31.3169 38.0088 30.5215 37.7122 29.7759C36.7704 27.486 34.5498 25.995 32.0889 26H24.2652C22.0729 26.0025 20.2962 27.7919 20.2938 30H15.965L3.70688 16.96C2.87957 16.0875 2.41925 14.9266 2.42211 13.7203C2.42508 11.1145 4.52165 9.003 7.1087 9H15.5882C16.8245 10.5275 18.7852 11.2609 20.7119 10.9165C20.829 11.2549 20.9664 11.5856 21.1233 11.9073L21.6658 13H9.37219C8.82388 12.9999 8.3792 13.4475 8.37908 13.9998C8.37895 14.2855 8.50033 14.5576 8.71243 14.7475L17.6483 22.7475C17.8301 22.9102 18.0648 23 18.308 23H42.1369C42.3801 23 42.6148 22.9102 42.7967 22.7475L51.7325 14.7475C52.1424 14.3806 52.1794 13.7486 51.8151 13.3358C51.6266 13.1221 51.3564 13 51.0727 13H40.3858L40.5952 12.8945C41.0858 12.647 41.2844 12.0458 41.0387 11.5515C41.0169 11.5078 40.992 11.4657 40.9642 11.4257L39.2744 9H53.336C55.9216 8.99725 58.02 11.1064 58.0227 13.7106C58.0239 14.9207 57.5632 16.085 56.7359 16.9625H56.7362Z" fill="#3F4040"/>
    </symbol>

    <symbol id="two" viewBox="0 0 60 71" fill="none">
        <circle cx="25" cy="46" r="25" fill="#FFE7E7"/>
        <path d="M50.2428 25.5435L51.6697 24.1166L48.6552 21.102L46.8464 19.3033L56.483 9.66673L58.2817 11.4755L59.7086 10.0486L49.66 0L48.2331 1.4269L50.0419 3.22559L40.4053 12.8622L38.6066 11.0534L35.592 8.03886L34.1651 9.46576L36.4763 11.7669L9.04371 39.1895C8.64968 39.5802 8.64705 40.2165 9.03794 40.6106C9.03982 40.6126 9.04183 40.6145 9.04371 40.6164L10.8525 42.4151L8.03886 45.2186C7.64483 45.6094 7.64219 46.2457 8.03308 46.6397C8.03496 46.6417 8.03697 46.6436 8.03886 46.6455L9.8476 48.4442L0 58.2818L1.4269 59.7087L11.2644 49.861L13.0631 51.6698C13.4539 52.0638 14.0902 52.0665 14.4843 51.6756C14.4863 51.6737 14.4882 51.6717 14.49 51.6698L17.2936 48.8562L19.0923 50.6649C19.483 51.059 20.1194 51.0616 20.5134 50.6707C20.5154 50.6688 20.5173 50.6668 20.5192 50.6649L47.9417 23.2323L50.2428 25.5435ZM51.4587 4.64244L55.0662 8.24988L45.4296 17.8865L41.8221 14.279L51.4587 4.64244ZM13.7766 49.5395L10.1692 45.9321L12.2693 43.8319L15.8767 47.4393L13.7766 49.5395ZM19.8057 48.5346L11.174 39.9029L13.7766 37.3003L17.0826 40.6164L18.5095 39.1895L15.1934 35.8835L17.796 33.2809L20.0971 35.5921L21.524 34.1652L19.2129 31.864L21.8154 29.2615L25.1214 32.5775L26.5483 31.1506L23.2323 27.8446L25.8349 25.242L28.136 27.5532L29.5629 26.1263L27.2517 23.8252L29.8543 21.2226L33.1603 24.5386L34.5872 23.1117L31.2711 19.8057L33.8737 17.2032L36.1749 19.5143L37.6017 18.0874L35.2906 15.7863L37.8932 13.1837L46.5249 21.8155L19.8057 48.5346Z" fill="#3F4040"/>
        <path d="M56.9856 37.1495V35.8834H57.9904C58.5453 35.8834 58.9953 35.4335 58.9953 34.8785V30.8591C58.9953 30.3042 58.5453 29.8542 57.9904 29.8542H47.9418C47.3869 29.8542 46.937 30.3042 46.937 30.8591V34.8785C46.937 35.4335 47.3869 35.8834 47.9418 35.8834H48.9467V37.1495C47.0593 38.4637 45.9336 40.6175 45.9321 42.9174V58.9951C45.9321 59.5501 46.3821 60 46.937 60H58.9953C59.5502 60 60.0001 59.5501 60.0001 58.9951V42.9174C59.9986 40.6175 58.8729 38.4637 56.9856 37.1495ZM48.9467 31.864H56.9856V33.8737H48.9467V31.864ZM47.9418 51.9611H51.9613V49.9514H47.9418V47.9417H51.9613V45.932H47.9418V43.9223H53.971V53.9708H47.9418V51.9611ZM57.9904 57.9903H47.9418V55.9806H54.9758C55.5308 55.9806 55.9807 55.5306 55.9807 54.9757V42.9174C55.9807 42.3625 55.5308 41.9125 54.9758 41.9125H48.0524C48.3379 40.5052 49.212 39.2872 50.454 38.5664C50.763 38.388 50.9543 38.059 50.9564 37.7022V35.8834H54.9758V37.7022C54.978 38.059 55.1693 38.388 55.4783 38.5664C57.0328 39.4638 57.9904 41.1225 57.9904 42.9174V57.9903Z" fill="#3F4040"/>
    </symbol>

    <symbol id="three" viewBox="0 0 61 71" fill="none">
        <circle cx="25" cy="46" r="25" fill="#FFE7E7"/>
        <path d="M55.5401 16.7752C53.5878 14.823 50.4222 14.823 48.4699 16.7752C46.5175 18.7274 46.5175 21.8927 48.4699 23.8449C50.4222 25.7971 53.5878 25.7971 55.5401 23.8449C57.4891 21.8913 57.4891 18.7289 55.5401 16.7752ZM54.1263 22.4312C52.9551 23.6023 51.0559 23.6023 49.8842 22.4312C48.713 21.2596 48.713 19.3606 49.8842 18.1895C51.0559 17.0179 52.9551 17.0179 54.1263 18.189C55.298 19.3606 55.298 21.2601 54.1263 22.4312Z" fill="#3F4040"/>
        <path d="M44.228 5.46384C42.2757 3.51213 39.1106 3.51262 37.1582 5.46482C35.2064 7.41701 35.2064 10.5818 37.1582 12.534C39.1106 14.4857 42.2757 14.4862 44.228 12.5345C46.1769 10.5804 46.1769 7.41798 44.228 5.46384ZM42.8141 11.1208C41.6263 12.2523 39.7594 12.2523 38.5716 11.1208C37.4004 9.94964 37.4009 8.05065 38.5721 6.87904C39.7433 5.70792 41.6424 5.70792 42.8141 6.87904C43.9854 8.05065 43.9854 9.94964 42.8141 11.1208Z" fill="#3F4040"/>
        <path d="M58.3681 13.9482C55.9842 11.5679 52.4715 10.7165 49.2625 11.7417C50.61 7.53074 48.6991 2.96488 44.7534 0.969241C40.8082 -1.02591 35.9974 0.140328 33.404 3.72106C30.8106 7.30178 31.2027 12.2357 34.3296 15.362C35.308 16.3461 36.5031 17.0881 37.8198 17.5275L35.7445 19.6037L30.794 14.6541C30.0134 13.8735 28.7474 13.8735 27.9663 14.6541L26.5534 16.0674C25.7728 16.8484 25.7728 18.1143 26.5534 18.8948L31.5029 23.8439L30.0881 25.2586L27.9663 23.138C27.1857 22.3574 25.9197 22.3574 25.1391 23.138L18.7758 29.5003L15.9471 32.3278L7.46344 40.8117C5.51109 42.7639 5.51109 45.9292 7.46344 47.8814L5.34266 50.002C4.17095 51.1732 4.17095 53.0726 5.34266 54.2437L1.30516 58.2809C1.04543 58.5318 0.940954 58.9038 1.03274 59.2533C1.12403 59.6029 1.39743 59.8758 1.74699 59.9675C2.09655 60.0588 2.46807 59.9544 2.71901 59.6947L6.75651 55.6575C7.92822 56.8291 9.82735 56.8291 10.9991 55.6575L13.1198 53.5359C15.0722 55.4881 18.2373 55.4881 20.1896 53.5359L28.6723 45.053L37.8628 35.8632C38.6435 35.0821 38.6435 33.8167 37.8628 33.0357L35.7445 30.9141L37.1583 29.5003L42.1073 34.4494C42.8884 35.23 44.1539 35.23 44.935 34.4494L46.3499 33.0347C47.1305 32.2541 47.1305 30.9883 46.3499 30.2072L41.4004 25.2586L43.4772 23.1829C44.4737 26.1315 46.9225 28.3566 49.9528 29.0669C52.9837 29.7771 56.1658 28.8721 58.3691 26.6734C61.8774 23.1566 61.8769 17.464 58.3681 13.9482ZM26.5525 24.5518L28.6742 26.6724L23.0183 32.3288L20.8965 30.2072L26.5525 24.5518ZM9.5852 54.2447C9.39773 54.4327 9.14288 54.5381 8.87778 54.5381C8.6122 54.5381 8.35784 54.4327 8.17037 54.2447L6.75651 52.8305C6.56904 52.6425 6.4631 52.3882 6.4631 52.1231C6.4631 51.8576 6.56904 51.6032 6.75651 51.4158L8.8773 49.2952L11.7109 52.1226L9.5852 54.2447ZM18.7758 52.1246C17.6045 53.2957 15.7049 53.2957 14.5332 52.1246L13.8263 51.4168L9.5852 47.1755L8.87925 46.4696C7.71047 45.2971 7.71047 43.4 8.87925 42.2274L16.6569 34.4514L18.9847 36.779C19.3772 37.1578 20.0007 37.1524 20.3864 36.7668C20.772 36.3811 20.7774 35.7577 20.3986 35.3652L18.0708 33.0376L19.4846 31.6229L29.3831 41.5211L27.9683 42.9343L24.6392 39.6055C24.2466 39.2262 23.6232 39.232 23.2375 39.6177C22.8518 40.0028 22.8464 40.6267 23.2253 41.0187L26.5525 44.3461L18.7758 52.1246ZM30.795 40.1054L28.6732 37.9838L31.7148 34.9434C32.0936 34.551 32.0883 33.9276 31.7026 33.5419C31.3169 33.1563 30.6934 33.1509 30.3009 33.5297L27.2594 36.57L24.4322 33.7425L30.0881 28.0871L33.6227 31.621L36.4494 34.4484L30.795 40.1054ZM34.3306 29.5003L31.5019 26.6724L32.9158 25.2586L35.7445 28.0871L34.3306 29.5003ZM43.5221 33.0357L37.8653 27.3802L27.9663 17.4821L29.3811 16.0688L35.0356 21.7233L39.2776 25.9655L44.9331 31.619L43.5221 33.0357ZM56.9543 25.2596C54.2188 27.988 49.7912 27.988 47.0558 25.2596C45.9285 24.1363 45.2226 22.6596 45.0561 21.0775C45.0141 20.6952 44.7573 20.3711 44.3946 20.2432C44.0323 20.1153 43.6286 20.2061 43.3562 20.4775L39.9909 23.8429L37.1632 21.0155L40.5284 17.65C40.7999 17.3781 40.8912 16.9744 40.7633 16.6117C40.6354 16.2495 40.3107 15.9922 39.9289 15.9507C38.3461 15.7842 36.8693 15.0783 35.7464 13.9512C33.0134 11.2179 33.0134 6.78677 35.7464 4.05399C38.4799 1.32121 42.9114 1.32121 45.6444 4.05399C48.3779 6.78677 48.3779 11.2179 45.6449 13.9512C45.266 14.3432 45.2714 14.967 45.6571 15.3527C46.0428 15.7383 46.6662 15.7437 47.0587 15.3649C49.7922 12.6316 54.2237 12.6316 56.9572 15.3649C59.6907 18.0982 59.6907 22.5293 56.9572 25.2625L56.9543 25.2596Z" fill="#3F4040"/>
        <path d="M17.6547 48.5883C17.6547 49.1405 17.207 49.5881 16.6549 49.5881C16.1027 49.5881 15.655 49.1405 15.655 48.5883C15.655 48.0362 16.1027 47.5886 16.6549 47.5886C17.207 47.5886 17.6547 48.0362 17.6547 48.5883Z" fill="#3F4040"/>
        <path d="M10.999 44.3461C10.6085 44.7366 10.6085 45.3698 10.9986 45.7603C11.3891 46.1508 12.0223 46.1508 12.4129 45.7603C12.8035 45.3698 12.8035 44.7366 12.4129 44.3461C12.0223 43.956 11.3891 43.956 10.999 44.3461Z" fill="#3F4040"/>
        <path d="M20.8965 44.3461C20.5064 44.7367 20.5064 45.3698 20.897 45.7599C21.2876 46.1499 21.9203 46.1499 22.3108 45.7599C22.7009 45.3698 22.7014 44.7367 22.3113 44.3461C22.1239 44.1587 21.869 44.0532 21.6039 44.0532C21.3383 44.0532 21.084 44.1587 20.8965 44.3461Z" fill="#3F4040"/>
        <path d="M17.3621 39.3984C16.9721 39.7885 16.9721 40.4216 17.3621 40.8117C17.7522 41.2027 17.7522 41.8354 17.3616 42.2254C16.9711 42.616 16.3384 42.616 15.9478 42.2254C15.5577 41.8354 15.5572 41.2027 15.9473 40.8117C16.3384 40.4216 16.3384 39.7885 15.9478 39.3979C15.5577 39.0069 14.9245 39.0069 14.5334 39.3975C13.3622 40.5686 13.3627 42.4676 14.5339 43.6387C15.7051 44.8098 17.6043 44.8098 18.776 43.6387C19.9472 42.4676 19.9472 40.5686 18.776 39.3975C18.3854 39.0074 17.7522 39.0079 17.3621 39.3984Z" fill="#3F4040"/>
        <path d="M48.8982 34.7281C48.5062 34.3493 47.8823 34.3547 47.4966 34.7403C47.1109 35.126 47.1055 35.7499 47.4844 36.1419L50.5562 39.2144C51.7269 40.3855 51.7269 42.284 50.5562 43.4551L44.9061 49.1121C43.7344 50.2837 41.8348 50.2837 40.6636 49.1121L37.8349 46.2836L45.5867 38.5324C45.9656 38.1399 45.9602 37.5166 45.5745 37.1309C45.1888 36.7452 44.5654 36.7399 44.1729 37.1187L36.4211 44.8699L34.7572 43.2115C34.3652 42.8327 33.7413 42.8381 33.3556 43.2237C32.9699 43.6094 32.9645 44.2328 33.3434 44.6253L39.2429 50.5238C41.1962 52.4726 44.3589 52.4726 46.3127 50.5238L51.9681 44.8669C53.9195 42.9147 53.9195 39.7509 51.9681 37.7987L48.8982 34.7281Z" fill="#3F4040"/>
        <path d="M10.9869 17.6144C11.9707 18.8968 13.3592 19.8092 14.9263 20.2037C16.7683 20.662 18.2066 22.1002 18.665 23.9421L18.8046 24.5025C18.9164 24.9472 19.3153 25.2591 19.7737 25.2596C19.8558 25.2596 19.9378 25.2499 20.0179 25.2294C20.5534 25.0951 20.8786 24.5523 20.7448 24.0168L20.6047 23.4568C19.9676 20.8978 17.9693 18.8998 15.4106 18.2632C14.2819 17.9791 13.283 17.3215 12.5756 16.3974L6.51152 8.47049C5.78018 7.5044 5.87343 6.1468 6.73024 5.28957C7.58705 4.43283 8.94525 4.33959 9.91142 5.07136L17.8429 11.1359C18.7675 11.8423 19.4252 12.8411 19.7098 13.9692C20.1155 15.5748 21.0655 16.99 22.3974 17.9742C22.6845 18.1919 23.0662 18.2383 23.3968 18.0962C23.7278 17.9537 23.9567 17.6447 23.9958 17.2864C24.0348 16.9285 23.8786 16.577 23.5862 16.3666C22.6268 15.6588 21.9424 14.64 21.6504 13.484C21.2569 11.9165 20.344 10.5281 19.061 9.54495L11.1261 3.48041C9.36316 2.14331 6.88305 2.3132 5.31931 3.87827C3.75509 5.44383 3.58763 7.92374 4.92679 9.68505L10.9869 17.6144Z" fill="#3F4040"/>
    </symbol>

    <symbol id="four" viewBox="0 0 61 71" fill="none">
        <circle cx="25" cy="46" r="25" fill="#FFE7E7"/>
        <path d="M59.4212 44.392C58.5915 45.5077 57.5183 46.4135 56.2856 47.0384C55.0529 47.6633 53.6942 47.9903 52.3159 47.9938H48.3686C48.2303 47.9938 48.0935 48.0233 47.9671 48.0803C47.8408 48.1374 47.7276 48.2207 47.6351 48.325L44.145 52.2566L45.612 53.5948L48.8081 49.9948H52.3159C54.0004 49.9906 55.6611 49.591 57.1678 48.8272C58.6744 48.0635 59.9861 46.9563 61.0001 45.5926L59.4212 44.392Z" fill="#3F4040"/>
        <path d="M39.9742 56.9545C39.6896 57.2758 39.3429 57.5343 38.9556 57.7139C38.5683 57.8936 38.1487 57.9906 37.7228 57.9989C35.9798 58.0323 34.5532 56.5389 34.5532 54.7714V54.7179C34.5532 54.3037 34.6337 53.8935 34.79 53.5108C34.9464 53.1282 35.1755 52.7805 35.4644 52.4876L35.4903 52.4613L44.1326 43.6994L42.7369 42.2844L34.0941 51.047C33.7224 51.4237 33.265 51.7019 32.7622 51.857C32.2594 52.0122 31.7267 52.0396 31.211 51.9367C30.7783 51.8537 30.3682 51.6777 30.0082 51.4206C29.6234 51.1497 29.3019 50.7965 29.0664 50.386C28.8309 49.9755 28.6871 49.5176 28.6451 49.0446C28.6031 48.5715 28.6639 48.095 28.8233 47.6484C28.9827 47.2018 29.2368 46.7961 29.5677 46.4599L38.2115 37.6963L36.8159 36.2813L28.1258 45.0905C27.556 45.6682 26.7832 45.9928 25.9773 45.9928C25.147 46.0012 24.3444 45.6908 23.7306 45.1239C23.1774 44.603 22.8241 43.9001 22.7335 43.1401C22.643 42.3801 22.8211 41.6122 23.2361 40.9727L30.4314 33.8701C30.8136 33.9476 31.2023 33.9867 31.5921 33.9867H42.9911L44.6908 35.9252C46.6395 38.1464 49.0299 39.9243 51.7047 41.1422C54.3795 42.36 57.2783 42.9902 60.2104 42.9913V40.9902C57.557 40.9893 54.9338 40.419 52.5132 39.3169C50.0926 38.2149 47.9294 36.6059 46.1658 34.5959L44.1717 32.3215C44.0791 32.2159 43.9655 32.1313 43.8384 32.0735C43.7113 32.0156 43.5735 31.9857 43.4341 31.9857H31.6706C29.4626 31.9857 27.6077 30.1534 27.6453 27.9146C27.6643 26.8657 28.0884 25.8662 28.8263 25.1308C29.5643 24.3954 30.5573 23.9828 31.5921 23.9816H50.342V21.9806H42.4748L49.5695 14.977H60.2104V12.976H51.5964L55.6918 8.9333C57.6667 6.98368 57.7357 3.57482 55.81 1.55654C55.0994 0.835517 54.1992 0.337112 53.2167 0.120864C52.2343 -0.0953849 51.2112 -0.020336 50.2697 0.337046C48.1887 1.16609 46.9022 3.23177 45.2376 4.75179L46.4867 6.28507C47.4365 5.57609 48.1372 4.58521 48.9494 3.71789C49.7615 2.85058 50.7774 2.06367 51.9556 1.97788C52.467 1.9492 52.9774 2.04839 53.442 2.26674C53.9067 2.48508 54.3112 2.81588 54.6201 3.23002C55.0843 3.85977 55.3089 4.63807 55.2528 5.42215C55.1967 6.20624 54.8637 6.94354 54.3148 7.49882L39.6458 21.9806H31.5921C31.3886 21.9806 31.1852 21.9911 30.9828 22.0122L45.0064 7.79434L43.6108 6.37937L37.1043 12.976H29.759C28.3329 12.972 26.9202 13.2548 25.6026 13.8081C24.285 14.3613 23.0887 15.174 22.083 16.1991L20.1125 18.197L21.508 19.6121L23.478 17.6147C25.1438 15.9258 27.4032 14.977 29.759 14.977H35.1306L27.9337 22.2736L17.1305 33.2264C16.8248 33.5428 16.46 33.7943 16.0575 33.9665C15.655 34.1386 15.2228 34.2279 14.7859 34.2292C14.297 34.2255 13.8155 34.108 13.3786 33.8856C12.9416 33.6633 12.5609 33.3422 12.2658 32.947C11.9301 32.5032 11.7157 31.9775 11.6443 31.4229C11.5772 30.9273 11.6243 30.4227 11.782 29.9486C11.9397 29.4746 12.2036 29.0441 12.5531 28.691L19.75 21.3941L18.3548 19.9795L11.1574 27.2761C10.4705 27.9722 9.99074 28.8502 9.77303 29.8098C9.55531 30.7694 9.60845 31.7717 9.92635 32.7021C10.2443 33.6325 10.8141 34.4534 11.5706 35.0707C12.3272 35.6881 13.2399 36.0771 14.2043 36.1932L1.28902 49.2873C1.19739 49.3803 1.1247 49.4906 1.07511 49.6119C1.02552 49.7333 0.999995 49.8634 1 49.9948V58.9994C0.999999 59.2643 1.10358 59.5183 1.28804 59.7059C1.47249 59.8934 1.72277 59.9992 1.984 59.9999C4.30513 60.0067 6.60452 59.5466 8.74904 58.6462C10.8936 57.7458 12.8406 56.4231 14.4774 54.7545L19.461 49.7019C19.5526 49.609 19.6253 49.4987 19.6749 49.3773C19.7245 49.2559 19.75 49.1257 19.75 48.9943V44.414L20.7775 43.3996C20.9336 44.6681 21.5415 45.8351 22.4867 46.6812C23.4319 47.5272 24.6494 47.994 25.9103 47.9938H26.7135C26.6059 48.7387 26.6577 49.4984 26.8656 50.2211C27.0734 50.9439 27.4323 51.6128 27.9179 52.1824C28.4035 52.7519 29.0043 53.2088 29.6796 53.5219C30.3549 53.835 31.0888 53.997 31.8314 53.9969C32.1014 53.9967 32.371 53.975 32.6376 53.932C32.5986 54.1919 32.579 54.4544 32.5789 54.7172V54.7473C32.5789 57.5752 34.785 59.951 37.5739 59.9989C38.3012 60.012 39.0228 59.8665 39.6898 59.5723C40.3568 59.2782 40.9538 58.8422 41.4402 58.2939L44.4341 54.9216L42.967 53.5834L39.9742 56.9545ZM18.0747 43.275C17.9803 43.3683 17.9052 43.4797 17.854 43.6028C17.8027 43.7259 17.7763 43.8582 17.7763 43.9918V48.58L13.0818 53.3394C10.3867 56.0875 6.7891 57.735 2.97368 57.9681V50.4092L25.7022 27.3659C25.5892 28.4774 25.7845 29.5988 26.2661 30.6038C26.7478 31.6088 27.4966 32.4574 28.4284 33.0542L18.0747 43.275Z" fill="#3F4040"/>
        <path d="M46.1056 9.26696L44.71 10.6819L46.6836 12.6829L48.0792 11.2679L46.1056 9.26696Z" fill="#3F4040"/>
        <path d="M43.1449 12.2685L41.7493 13.6834L43.7229 15.6844L45.1185 14.2695L43.1449 12.2685Z" fill="#3F4040"/>
        <path d="M49.066 6.26549L47.6704 7.68042L49.6441 9.68139L51.0397 8.26647L49.066 6.26549Z" fill="#3F4040"/>
        <path d="M40.1847 15.27L38.7891 16.6849L40.7627 18.6859L42.1583 17.271L40.1847 15.27Z" fill="#3F4040"/>
        <path d="M37.2242 18.2716L35.8286 19.6865L37.8023 21.6875L39.1979 20.2726L37.2242 18.2716Z" fill="#3F4040"/>
        <path d="M24.3951 31.2781L22.9995 32.6931L24.9731 34.6941L26.3687 33.2791L24.3951 31.2781Z" fill="#3F4040"/>
        <path d="M21.4347 34.2797L20.0391 35.6946L22.0127 37.6956L23.4083 36.2806L21.4347 34.2797Z" fill="#3F4040"/>
        <path d="M9.60646 50.16C8.15614 51.4494 6.46584 52.4312 4.63525 53.0477L5.25943 54.9462C7.33879 54.2458 9.2588 53.1305 10.9063 51.6659L16.4524 46.7459L15.1528 45.2399L9.60646 50.16Z" fill="#3F4040"/>
    </symbol>
        
        
        
        
                
</svg>